<svg width="23" height="19" viewBox="0 0 23 19" fill="none" xmlns="http://www.w3.org/2000/svg">
<path d="M17.4622 1.24999C16.3083 1.24999 15.2006 1.70331 14.3778 2.51226L11.3814 5.18914C9.81313 3.78937 8.26833 2.51226 8.26833 2.51226C7.44551 1.70331 6.33782 1.24999 5.18395 1.24999C4.03008 1.24999 2.92239 1.70331 2.09958 2.51226C1.69514 2.9101 1.37394 3.38446 1.15468 3.9077C0.935427 4.43093 0.82251 4.99257 0.82251 5.55988C0.82251 6.1272 0.935427 6.68884 1.15468 7.21207C1.37394 7.73531 1.69514 8.20967 2.09958 8.60751L11.2938 17.75L20.5466 8.60751C20.951 8.20967 21.2722 7.73531 21.4915 7.21207C21.7107 6.68884 21.8236 6.1272 21.8236 5.55988C21.8236 4.99257 21.7107 4.43093 21.4915 3.9077C21.2722 3.38446 20.951 2.9101 20.5466 2.51226C19.7238 1.70331 18.6161 1.24999 17.4622 1.24999Z" stroke="#212529" stroke-width="1.5" stroke-miterlimit="10" stroke-linecap="square"/>
</svg>
