<svg width="25" height="25" viewBox="0 0 25 25" fill="none" xmlns="http://www.w3.org/2000/svg">
<path d="M16.4228 3.75781C17.6259 3.75781 18.6533 4.18359 19.5048 5.03516C20.3564 5.88672 20.7822 6.91406 20.7822 8.11719V16.8828C20.7822 18.0859 20.3564 19.1133 19.5048 19.9648C18.6533 20.8164 17.6259 21.2422 16.4228 21.2422H7.65717C6.45404 21.2422 5.4267 20.8164 4.57513 19.9648C3.72357 19.1133 3.29779 18.0859 3.29779 16.8828V8.11719C3.29779 6.91406 3.72357 5.88672 4.57513 5.03516C5.4267 4.18359 6.45404 3.75781 7.65717 3.75781H16.4228ZM16.4228 2H7.65717C6.81342 2 6.02435 2.16406 5.28998 2.49219C4.53998 2.80469 3.88763 3.23828 3.33295 3.79297C2.77826 4.34766 2.34467 5 2.03217 5.75C1.70404 6.48438 1.53998 7.27344 1.53998 8.11719V16.8828C1.53998 17.7266 1.70404 18.5156 2.03217 19.25C2.34467 20 2.77826 20.6523 3.33295 21.207C3.88763 21.7617 4.53998 22.1953 5.28998 22.5078C6.02435 22.8359 6.81342 23 7.65717 23H16.4228C17.2665 23 18.0556 22.8359 18.79 22.5078C19.54 22.1953 20.1923 21.7617 20.747 21.207C21.3017 20.6523 21.7353 20 22.0478 19.25C22.3759 18.5156 22.54 17.7266 22.54 16.8828V8.11719C22.54 7.27344 22.3759 6.48438 22.0478 5.75C21.7353 5 21.3017 4.34766 20.747 3.79297C20.1923 3.23828 19.54 2.80469 18.79 2.49219C18.0556 2.16406 17.2665 2 16.4228 2ZM17.7353 8.11719C17.3603 8.11719 17.0478 7.99219 16.7978 7.74219C16.5478 7.49219 16.4228 7.17969 16.4228 6.80469C16.4228 6.44531 16.5478 6.13672 16.7978 5.87891C17.0478 5.62109 17.3603 5.49219 17.7353 5.49219C18.0947 5.49219 18.4033 5.62109 18.6611 5.87891C18.9189 6.13672 19.0478 6.44531 19.0478 6.80469C19.0478 7.17969 18.9189 7.49219 18.6611 7.74219C18.4033 7.99219 18.0947 8.11719 17.7353 8.11719ZM12.04 9.00781C13.0087 9.00781 13.8329 9.34766 14.5126 10.0273C15.1923 10.707 15.5322 11.5312 15.5322 12.5C15.5322 13.4688 15.1923 14.293 14.5126 14.9727C13.8329 15.6523 13.0087 15.9922 12.04 15.9922C11.0712 15.9922 10.247 15.6523 9.56732 14.9727C8.88763 14.293 8.54779 13.4688 8.54779 12.5C8.54779 11.5312 8.88763 10.707 9.56732 10.0273C10.247 9.34766 11.0712 9.00781 12.04 9.00781ZM12.04 7.25C11.3212 7.25 10.6415 7.39062 10.0009 7.67188C9.36029 7.9375 8.8017 8.30859 8.32513 8.78516C7.84857 9.26172 7.47748 9.82031 7.21185 10.4609C6.9306 11.1016 6.78998 11.7812 6.78998 12.5C6.78998 13.2188 6.9306 13.8984 7.21185 14.5391C7.47748 15.1797 7.84857 15.7383 8.32513 16.2148C8.8017 16.6914 9.36029 17.0625 10.0009 17.3281C10.6415 17.6094 11.3212 17.75 12.04 17.75C12.7587 17.75 13.4384 17.6094 14.079 17.3281C14.7197 17.0625 15.2783 16.6914 15.7548 16.2148C16.2314 15.7383 16.6025 15.1797 16.8681 14.5391C17.1494 13.8984 17.29 13.2188 17.29 12.5C17.29 11.7812 17.1494 11.1016 16.8681 10.4609C16.6025 9.82031 16.2314 9.26172 15.7548 8.78516C15.2783 8.30859 14.7197 7.9375 14.079 7.67188C13.4384 7.39062 12.7587 7.25 12.04 7.25Z" fill="#121111"/>
</svg>
