<svg width="17" height="13" viewBox="0 0 17 13" fill="none" xmlns="http://www.w3.org/2000/svg">
<path d="M15.3786 11.3571V4.49993C15.1882 4.71422 14.9828 4.91064 14.7626 5.08922C13.1673 6.31541 11.8995 7.32136 10.959 8.10707C10.6554 8.36303 10.4084 8.56243 10.2179 8.70529C10.0274 8.84814 9.77 8.99249 9.44559 9.13832C9.12119 9.28416 8.81613 9.35707 8.53041 9.35707H8.52148H8.51256C8.22684 9.35707 7.92178 9.28416 7.59738 9.13832C7.27297 8.99249 7.01553 8.84814 6.82506 8.70529C6.63458 8.56243 6.38756 8.36303 6.08398 8.10707C5.14351 7.32136 3.87565 6.31541 2.28041 5.08922C2.06017 4.91064 1.85482 4.71422 1.66434 4.49993V11.3571C1.66434 11.4345 1.69262 11.5014 1.74916 11.558C1.80571 11.6145 1.87267 11.6428 1.95006 11.6428H15.0929C15.1703 11.6428 15.2373 11.6145 15.2938 11.558C15.3504 11.5014 15.3786 11.4345 15.3786 11.3571ZM15.3786 1.97314C15.3786 1.96124 15.3786 1.9285 15.3786 1.87493C15.3786 1.82136 15.3786 1.78118 15.3786 1.75439C15.3786 1.72761 15.3771 1.68892 15.3742 1.63832C15.3712 1.58773 15.3623 1.55052 15.3474 1.52672C15.3325 1.50291 15.3161 1.47612 15.2983 1.44636C15.2804 1.4166 15.2536 1.39427 15.2179 1.37939C15.1822 1.36451 15.1405 1.35707 15.0929 1.35707H1.95006C1.87267 1.35707 1.80571 1.38535 1.74916 1.44189C1.69262 1.49844 1.66434 1.56541 1.66434 1.64279C1.66434 2.64279 2.10184 3.48802 2.97684 4.1785C4.12565 5.08326 5.3191 6.02672 6.5572 7.00886C6.59291 7.03862 6.69708 7.12642 6.8697 7.27225C7.04232 7.41808 7.17922 7.52969 7.28041 7.60707C7.3816 7.68445 7.51404 7.7782 7.67773 7.88832C7.84143 7.99844 7.99172 8.08029 8.12863 8.13386C8.26553 8.18743 8.39351 8.21422 8.51256 8.21422H8.52148H8.53041C8.64946 8.21422 8.77744 8.18743 8.91434 8.13386C9.05125 8.08029 9.20154 7.99844 9.36523 7.88832C9.52892 7.7782 9.66137 7.68445 9.76256 7.60707C9.86375 7.52969 10.0007 7.41808 10.1733 7.27225C10.3459 7.12642 10.4501 7.03862 10.4858 7.00886C11.7239 6.02672 12.9173 5.08326 14.0661 4.1785C14.3876 3.92255 14.6867 3.5788 14.9634 3.14725C15.2402 2.7157 15.3786 2.32433 15.3786 1.97314ZM16.5215 1.64279V11.3571C16.5215 11.7499 16.3816 12.0862 16.1018 12.366C15.8221 12.6458 15.4858 12.7856 15.0929 12.7856H1.95006C1.5572 12.7856 1.22089 12.6458 0.941127 12.366C0.661365 12.0862 0.521484 11.7499 0.521484 11.3571V1.64279C0.521484 1.24993 0.661365 0.91362 0.941127 0.633859C1.22089 0.354096 1.5572 0.214215 1.95006 0.214215H15.0929C15.4858 0.214215 15.8221 0.354096 16.1018 0.633859C16.3816 0.91362 16.5215 1.24993 16.5215 1.64279Z" fill="black"/>
</svg>
