<svg width="14" height="13" viewBox="0 0 14 13" fill="none" xmlns="http://www.w3.org/2000/svg">
<path d="M13.0929 10.1428C13.0929 10.3035 13.0632 10.5133 13.0036 10.7723C12.9441 11.0312 12.8816 11.235 12.8161 11.3839C12.6911 11.6815 12.328 11.997 11.7268 12.3303C11.1673 12.6339 10.6137 12.7856 10.0661 12.7856C9.90541 12.7856 9.74767 12.7752 9.59291 12.7544C9.43815 12.7336 9.26702 12.6964 9.07952 12.6428C8.89202 12.5892 8.75214 12.5461 8.65988 12.5133C8.56762 12.4806 8.40244 12.4196 8.16434 12.3303C7.92625 12.241 7.78041 12.1874 7.72684 12.1696C7.14351 11.9612 6.62267 11.7142 6.16434 11.4285C5.40839 10.9583 4.62267 10.3154 3.8072 9.49993C2.99172 8.68445 2.34887 7.89874 1.87863 7.14279C1.59291 6.68445 1.34589 6.16362 1.13756 5.58029C1.1197 5.52672 1.06613 5.38088 0.976842 5.14279C0.887556 4.90469 0.826544 4.73951 0.793806 4.64725C0.761068 4.55499 0.717913 4.41511 0.664342 4.22761C0.61077 4.04011 0.573568 3.86898 0.552734 3.71422C0.531901 3.55945 0.521484 3.40172 0.521484 3.241C0.521484 2.69338 0.67327 2.13981 0.976842 1.58029C1.31017 0.979096 1.62565 0.616001 1.92327 0.491001C2.07208 0.425525 2.27595 0.363025 2.53488 0.303501C2.79381 0.243978 3.00363 0.214215 3.16434 0.214215C3.24767 0.214215 3.31017 0.223144 3.35184 0.241001C3.45898 0.276715 3.61672 0.502906 3.82506 0.919573C3.89053 1.03267 3.97982 1.19338 4.09291 1.40172C4.20601 1.61005 4.31017 1.79904 4.40541 1.96868C4.50065 2.13832 4.59291 2.29755 4.6822 2.44636C4.70006 2.47017 4.75214 2.54457 4.83845 2.66957C4.92476 2.79457 4.98875 2.90023 5.03041 2.98654C5.07208 3.07285 5.09291 3.15767 5.09291 3.241C5.09291 3.36005 5.00809 3.50886 4.83845 3.68743C4.66881 3.866 4.48428 4.02969 4.28488 4.1785C4.08547 4.32731 3.90095 4.48505 3.73131 4.65172C3.56166 4.81838 3.47684 4.95529 3.47684 5.06243C3.47684 5.116 3.49172 5.18297 3.52148 5.26332C3.55125 5.34368 3.57654 5.40469 3.59738 5.44636C3.61821 5.48803 3.65988 5.55945 3.72238 5.66064C3.78488 5.76183 3.8191 5.81838 3.82506 5.83029C4.27744 6.64576 4.79529 7.34517 5.37863 7.9285C5.96196 8.51183 6.66137 9.02969 7.47684 9.48207C7.48875 9.48803 7.54529 9.52225 7.64648 9.58475C7.74767 9.64725 7.8191 9.68892 7.86077 9.70975C7.90244 9.73058 7.96345 9.75588 8.04381 9.78564C8.12416 9.81541 8.19113 9.83029 8.2447 9.83029C8.35184 9.83029 8.48875 9.74547 8.65541 9.57582C8.82208 9.40618 8.97982 9.22166 9.12863 9.02225C9.27744 8.82285 9.44113 8.63832 9.6197 8.46868C9.79827 8.29904 9.94708 8.21422 10.0661 8.21422C10.1495 8.21422 10.2343 8.23505 10.3206 8.27672C10.4069 8.31838 10.5126 8.38237 10.6376 8.46868C10.7626 8.55499 10.837 8.60707 10.8608 8.62493C11.0096 8.71422 11.1688 8.80648 11.3384 8.90172C11.5081 8.99695 11.6971 9.10112 11.9054 9.21422C12.1137 9.32731 12.2745 9.4166 12.3876 9.48207C12.8042 9.69041 13.0304 9.84814 13.0661 9.95529C13.084 9.99695 13.0929 10.0595 13.0929 10.1428Z" fill="black"/>
</svg>
