<svg width="25" height="25" viewBox="0 0 25 25" fill="none" xmlns="http://www.w3.org/2000/svg">
<path d="M12.1103 3.5C11.1572 3.5 10.2275 3.65625 9.32123 3.96875C8.41498 4.26562 7.60638 4.70312 6.89545 5.28125C6.18451 5.85938 5.6181 6.55469 5.19623 7.36719C4.75873 8.19531 4.53998 9.125 4.53998 10.1562C4.53998 11.4531 4.82123 12.457 5.38373 13.168C5.94623 13.8789 6.45404 14.2344 6.90717 14.2344C7.07904 14.2344 7.21576 14.0547 7.31732 13.6953C7.41888 13.3359 7.46967 13.0781 7.46967 12.9219C7.46967 12.75 7.32513 12.4688 7.03607 12.0781C6.74701 11.6875 6.60248 11.1328 6.60248 10.4141C6.60248 9.66406 6.73529 8.97656 7.00092 8.35156C7.26654 7.72656 7.63373 7.19141 8.10248 6.74609C8.57123 6.30078 9.12592 5.95312 9.76654 5.70312C10.3915 5.4375 11.0712 5.30469 11.8056 5.30469C13.0712 5.30469 14.122 5.65625 14.9579 6.35938C15.7939 7.0625 16.2119 8.07031 16.2119 9.38281C16.2119 9.88281 16.1572 10.4531 16.0478 11.0938C15.9384 11.75 15.7548 12.3711 15.497 12.957C15.2392 13.543 14.8915 14.0391 14.454 14.4453C14.0322 14.8516 13.5009 15.0547 12.8603 15.0547C12.3915 15.0547 11.9892 14.9023 11.6533 14.5977C11.3173 14.293 11.1494 13.9062 11.1494 13.4375C11.1494 12.7344 11.2978 12.0352 11.5947 11.3398C11.8915 10.6445 12.04 9.9375 12.04 9.21875C12.04 8 11.4736 7.48438 10.3408 7.67188C9.20795 7.85938 8.64154 8.69531 8.64154 10.1797C8.64154 10.4922 8.66498 10.8125 8.71185 11.1406C8.75873 11.4688 8.85248 11.7734 8.9931 12.0547C8.8681 12.6172 8.71967 13.2422 8.54779 13.9297C8.37592 14.6172 8.21576 15.3203 8.06732 16.0391C7.91888 16.7578 7.79779 17.4609 7.70404 18.1484C7.59467 18.8516 7.53998 19.4844 7.53998 20.0469C7.53998 20.4062 7.55951 20.7578 7.59857 21.1016C7.63763 21.4453 7.67279 21.7891 7.70404 22.1328C7.76654 22.2109 7.8017 22.25 7.80951 22.25C7.81732 22.25 7.8681 22.2344 7.96185 22.2031C8.89935 20.9219 9.45013 19.9141 9.6142 19.1797C9.77826 18.4453 10.079 17.2344 10.5165 15.5469C10.7353 15.9844 11.0986 16.3164 11.6064 16.543C12.1142 16.7695 12.6025 16.8828 13.0712 16.8828C14.0556 16.8828 14.9072 16.6719 15.6259 16.25C16.3447 15.8125 16.9384 15.2422 17.4072 14.5391C17.8759 13.8359 18.2275 13.0547 18.4619 12.1953C18.6806 11.3203 18.79 10.4531 18.79 9.59375C18.79 8.67188 18.6025 7.83594 18.2275 7.08594C17.8681 6.33594 17.3798 5.69531 16.7626 5.16406C16.1454 4.63281 15.4306 4.21875 14.6181 3.92188C13.8212 3.64062 12.9853 3.5 12.1103 3.5Z" fill="#121111"/>
</svg>
