<svg width="25" height="25" viewBox="0 0 25 25" fill="none" xmlns="http://www.w3.org/2000/svg">
<path d="M23.29 5.63281C22.8994 5.80469 22.4853 5.95312 22.0478 6.07812C21.6103 6.20312 21.1572 6.28906 20.6884 6.33594L20.6415 6.35938C21.1103 6.07812 21.5204 5.72266 21.872 5.29297C22.2236 4.86328 22.4853 4.39062 22.6572 3.875L22.6806 3.82812C22.2587 4.07812 21.8017 4.29688 21.3095 4.48438C20.8173 4.67188 20.3134 4.82031 19.7978 4.92969H19.7275C19.3056 4.49219 18.8056 4.14453 18.2275 3.88672C17.6494 3.62891 17.0322 3.5 16.3759 3.5C15.7353 3.5 15.1337 3.61719 14.5712 3.85156C14.0087 4.08594 13.5204 4.41016 13.1064 4.82422C12.6923 5.23828 12.3603 5.71875 12.1103 6.26562C11.8759 6.82812 11.7587 7.42188 11.7587 8.04688C11.7587 8.04688 11.7587 8.05078 11.7587 8.05859C11.7587 8.06641 11.7587 8.07031 11.7587 8.07031C11.7587 8.24219 11.7665 8.41797 11.7822 8.59766C11.7978 8.77734 11.829 8.94531 11.8759 9.10156V9.07812C10.9072 9.03125 9.97748 8.89062 9.08685 8.65625C8.19623 8.40625 7.34857 8.07812 6.54388 7.67188C5.7392 7.26562 4.98529 6.78125 4.28217 6.21875C3.57904 5.65625 2.94623 5.03125 2.38373 4.34375L2.36029 4.32031C2.15717 4.64844 2.00092 5.00781 1.89154 5.39844C1.78217 5.78906 1.72748 6.19531 1.72748 6.61719C1.72748 7.39844 1.91498 8.12109 2.28998 8.78516C2.66498 9.44922 3.16498 9.98438 3.78998 10.3906C3.39935 10.3906 3.02826 10.3398 2.6767 10.2383C2.32513 10.1367 1.98529 9.99219 1.65717 9.80469L1.6806 9.82812V9.875C1.6806 10.9844 2.03607 11.9531 2.74701 12.7812C3.45795 13.6094 4.33685 14.125 5.38373 14.3281C5.21185 14.3906 5.02045 14.4336 4.80951 14.457C4.59857 14.4805 4.39154 14.4922 4.18842 14.4922C4.17279 14.4922 4.16498 14.4922 4.16498 14.4922C4.00873 14.4922 3.86029 14.4844 3.71967 14.4688C3.57904 14.4531 3.4306 14.4297 3.27435 14.3984L3.32123 14.4219C3.60248 15.3125 4.13763 16.0547 4.9267 16.6484C5.71576 17.2422 6.6181 17.5469 7.63373 17.5625C6.85248 18.1719 5.97357 18.6484 4.99701 18.9922C4.02045 19.3359 2.9931 19.5078 1.91498 19.5078C1.91498 19.5078 1.91107 19.5078 1.90326 19.5078C1.89545 19.5078 1.89154 19.5078 1.89154 19.5078C1.70404 19.5078 1.51263 19.5039 1.31732 19.4961C1.12201 19.4883 0.930603 19.4688 0.743103 19.4375H0.789978C1.78998 20.0938 2.88373 20.6016 4.07123 20.9609C5.25873 21.3203 6.50873 21.5 7.82123 21.5C7.82123 21.5 7.82513 21.5 7.83295 21.5C7.84076 21.5 7.85248 21.5 7.8681 21.5H7.84467C9.96967 21.5 11.8525 21.1094 13.4931 20.3281C15.1337 19.5469 16.5087 18.5352 17.6181 17.293C18.7275 16.0508 19.5712 14.6641 20.1494 13.1328C20.7119 11.5859 20.9931 10.0625 20.9931 8.5625C20.9931 8.46875 20.9931 8.375 20.9931 8.28125C20.9931 8.1875 20.9931 8.08594 20.9931 7.97656C21.4462 7.66406 21.8642 7.3125 22.247 6.92188C22.6298 6.53125 22.9697 6.10938 23.2665 5.65625L23.29 5.63281Z" fill="#121111"/>
</svg>
