<svg width="20" height="21" viewBox="0 0 20 21" fill="none" xmlns="http://www.w3.org/2000/svg">
<path d="M10.0647 -0.000415802C13.3784 -0.000415802 16.0647 2.68588 16.0647 5.99958C16.0647 7.54112 15.482 8.94567 14.5266 10.0084C15.8789 10.6581 17.0615 11.6263 17.9661 12.8394C19.1369 14.4099 19.7835 16.3095 19.8147 18.2681L19.8225 18.7506L19.387 18.9576C16.662 20.2565 13.6914 20.9517 10.678 20.9986H10.0647C10.0612 20.9986 10.0575 20.9996 10.054 20.9996V20.9986C6.83471 21.0408 3.64882 20.343 0.742432 18.9576L0.306885 18.7506L0.314697 18.2681C0.346226 16.3088 0.99434 14.409 2.16626 12.8385C3.07054 11.6267 4.25188 10.6588 5.60278 10.0093C4.64709 8.94659 4.0647 7.54138 4.0647 5.99958C4.0647 2.68588 6.75099 -0.000415802 10.0647 -0.000415802ZM13.2415 11.0885C12.32 11.6649 11.2317 11.9996 10.0647 11.9996C8.89833 11.9996 7.81004 11.6662 6.88892 11.0904C5.48951 11.6164 4.26616 12.532 3.36841 13.7349C2.48129 14.9237 1.95282 16.3378 1.83813 17.8101C4.24932 18.8852 6.85316 19.4609 9.49243 19.4996H10.637C13.2759 19.4609 15.8793 18.885 18.2903 17.8101C18.1759 16.3384 17.6492 14.9246 16.7629 13.7359C15.8653 12.532 14.6415 11.615 13.2415 11.0885ZM10.0647 1.49958C7.57942 1.49958 5.5647 3.5143 5.5647 5.99958C5.5647 8.48487 7.57942 10.4996 10.0647 10.4996C12.55 10.4996 14.5647 8.48487 14.5647 5.99958C14.5647 3.5143 12.55 1.49958 10.0647 1.49958Z" fill="#1E2022"/>
</svg>
